<svg width="71" height="72" viewBox="0 0 71 72" fill="none" xmlns="http://www.w3.org/2000/svg">
<g clip-path="url(#clip0_173_2177)">
<path fill-rule="evenodd" clip-rule="evenodd" d="M23.9705 34.0252L23.9698 41.0624L10.2703 45.9811L10.2703 36.0007H10.2698L10.2698 26.0198L23.97 30.9377L23.9707 30.9384L23.9702 34.0252L23.9705 34.0252Z" fill="#274A72"/>
<path d="M29.0791 14.9262L43.6597 21.7908V50.2077L29.0791 57.0723L29.0791 14.9262Z" fill="#274A72"/>
<path fill-rule="evenodd" clip-rule="evenodd" d="M52.7636 35.0101C52.8458 40.2607 53.569 46.8515 54.9343 48.4091L54.9343 48.4104C51.8262 49.5049 48.1022 50.21 43.6593 50.21C29.6062 50.2093 18.2138 36.0008 18.2138 36.0008L18.2149 36.0008H18.2134C18.2134 36.0008 29.6052 21.7917 43.6589 21.7917C48.1018 21.7917 51.8259 22.4967 54.934 23.5912L54.9333 23.5919C53.571 25.1473 52.8474 29.9775 52.7636 35.0101Z" fill="#8A9AB0"/>
<path fill-rule="evenodd" clip-rule="evenodd" d="M69.1048 35.9998L69.1051 35.9999C69.1051 35.9999 65.7871 44.5853 54.9339 48.4074C52.0302 45.0935 50.2694 40.7514 50.2694 35.9992L50.2697 35.9991C50.2697 31.2468 52.0299 26.9055 54.9343 23.5909L54.935 23.5916C65.7874 27.4144 69.1054 35.9998 69.1054 35.9998H69.1048Z" fill="#F9F5EF"/>
<path d="M61.8545 34.518V37.479L58.6379 37.479L58.6379 34.518L61.8545 34.518Z" fill="#153561"/>
<path fill-rule="evenodd" clip-rule="evenodd" d="M45.3157 35.9993C45.3157 38.6234 45.7452 41.2114 46.5918 43.6904L43.7889 44.6482C42.8367 41.8591 42.354 38.9499 42.354 36L42.3548 35.9993H42.3533C42.354 33.0501 42.8367 30.1409 43.7882 27.3525L46.5918 28.3096C45.7459 30.7893 45.3164 33.376 45.3164 36L45.3157 35.9993Z" fill="#274A72"/>
</g>
<defs>
<clipPath id="clip0_173_2177">
<rect width="50" height="50" fill="white" transform="translate(71 36) rotate(135)"/>
</clipPath>
</defs>
</svg>
