<svg width="70" height="20" viewBox="0 0 70 20" fill="none" xmlns="http://www.w3.org/2000/svg">
<g clip-path="url(#clip0_252_1693)">
<path d="M9.146 7.60682V2.12486C9.146 0.951022 10.097 0 11.2709 0H38.0951C38.8029 0 39.4646 0.351878 39.8586 0.940153L44.3352 7.60682L24.1952 9.01026L9.146 7.60682Z" fill="#F9F5EF"/>
<path d="M0.0386704 8.70963L2.10613 15.651L2.38988 16.1163L3.26486 18.8023C3.47736 19.5168 4.0836 20 4.76608 20H59.2363C59.9188 20 60.5238 19.5168 60.7376 18.8023L61.6988 15.8671L61.8938 15.6496L63.9612 8.70825C64.1237 8.1617 63.755 7.60001 63.2325 7.60001H0.767407C0.246167 7.60001 -0.123827 8.1617 0.0386704 8.70825V8.70963Z" fill="#F9F5EF"/>
<path d="M2 15.6L2.98976 18.8315C3.20301 19.5286 3.81142 20 4.49634 20H59.5037C60.1886 20 60.7957 19.5286 61.0102 18.8315L62 15.6H2Z" fill="#274A72"/>
<path d="M16.6972 2.60824V5.56925L13.4807 5.56925L13.4807 2.60824L16.6972 2.60824Z" fill="#274A72"/>
<path d="M22.6972 2.60836V5.56937L19.4807 5.56937L19.4807 2.60836L22.6972 2.60836Z" fill="#274A72"/>
<path d="M37 2.60836L37 5.56937L25.4804 5.56937L25.4804 2.60836L37 2.60836Z" fill="#274A72"/>
</g>
<defs>
<clipPath id="clip0_252_1693">
<rect width="69.5605" height="20" fill="white"/>
</clipPath>
</defs>
</svg>
